<?xml version="1.0" standalone="no"?>
<!DOCTYPE svg PUBLIC "-//W3C//DTD SVG 20010904//EN"
 "http://www.w3.org/TR/2001/REC-SVG-20010904/DTD/svg10.dtd">
<svg version="1.0" xmlns="http://www.w3.org/2000/svg"
 width="512.000000pt" height="512.000000pt" viewBox="0 0 512.000000 512.000000"
 preserveAspectRatio="xMidYMid meet">
<metadata>
Created by potrace 1.11, written by Peter Selinger 2001-2013
</metadata>
<g transform="translate(0.000000,512.000000) scale(0.100000,-0.100000)"
fill="#000000" stroke="none">
<path d="M2463 3810 c-43 -10 -60 -25 -75 -66 -11 -31 -16 -34 -53 -34 -22 0
-53 -7 -69 -15 -34 -18 -36 -18 -36 -2 -1 21 -47 47 -88 49 -53 2 -111 -34
-119 -74 -4 -19 -10 -27 -19 -24 -44 17 -150 23 -224 12 -76 -10 -88 -14 -142
-41 -72 -36 -111 -67 -193 -152 -57 -59 -77 -73 -101 -73 -16 0 -39 -7 -51
-15 -25 -17 -53 -69 -53 -97 0 -10 -15 -27 -32 -38 l-33 -20 -14 24 c-25 42
-85 65 -137 52 -29 -8 -63 -42 -76 -78 -9 -24 -14 -27 -63 -27 -30 0 -68 -7
-87 -16 -99 -50 -190 -193 -223 -352 -3 -18 -10 -32 -13 -32 -55 8 -104 -27
-120 -85 -12 -43 0 -98 28 -126 17 -17 24 -59 10 -61 -86 -12 -129 -56 -126
-129 1 -19 -1 -37 -5 -40 -22 -16 -79 -104 -103 -160 -49 -108 -39 -216 26
-287 17 -18 19 -30 14 -68 -5 -27 -3 -60 5 -82 10 -31 9 -37 -5 -45 -43 -24
-59 -110 -29 -163 9 -16 16 -50 17 -75 1 -43 3 -45 41 -59 22 -7 82 -15 133
-16 83 -3 95 -6 112 -27 11 -13 19 -26 20 -29 0 -4 17 -13 38 -21 54 -21 3933
-20 3972 1 36 20 68 61 76 99 4 20 12 32 23 33 18 1 45 5 78 14 30 7 90 61
109 97 42 82 37 251 -11 371 -14 36 -25 69 -24 74 5 29 -5 57 -31 86 -22 25
-30 45 -30 71 0 42 -13 71 -44 101 -18 17 -20 25 -12 56 12 49 1 86 -36 121
-16 15 -26 28 -20 28 19 0 44 70 38 108 -3 20 -5 40 -6 43 -1 17 -44 53 -76
64 -31 10 -38 18 -40 44 -7 64 -54 103 -126 105 -18 1 -34 10 -45 26 -9 14
-23 30 -31 35 -7 6 -14 17 -16 25 -10 51 -44 88 -88 97 -16 3 -28 7 -28 9 0 2
11 19 23 38 14 20 23 46 21 63 -1 15 -2 36 -3 45 -1 10 -14 32 -29 49 -30 34
-83 46 -128 29 -18 -7 -23 -5 -28 14 -3 13 -22 47 -41 76 -19 29 -35 54 -35
56 0 6 -51 64 -75 85 -57 50 -73 62 -105 79 -34 17 -113 42 -136 43 -7 0 -19
18 -29 39 -9 21 -29 45 -45 53 -59 30 -137 10 -164 -43 -13 -25 -18 -27 -60
-24 -38 3 -46 7 -46 24 0 11 -14 33 -31 49 -26 24 -40 29 -81 29 -42 0 -54 -5
-79 -30 l-30 -30 -33 25 c-34 26 -130 71 -168 79 -13 3 -34 7 -48 11 -78 17
-190 23 -240 12 -82 -18 -90 -19 -90 -9 0 10 -20 18 -60 27 -8 1 -30 -1 -47
-5z"/>
</g>
</svg>
